<svg width="957" height="434" viewBox="0 0 957 434" fill="none" xmlns="http://www.w3.org/2000/svg">
<g filter="url(#filter0_i_2161_1460)">
<path d="M957 424C957 429.523 952.523 434 947 434H9.99997C4.47712 434 0 429.523 0 424V402C0 396.477 4.47715 392 10 392H33C38.5228 392 43 387.523 43 382V275C43 269.477 38.5228 265 33 265H10C4.47715 265 0 260.523 0 255V61C0 55.4772 4.47715 51 10 51H179C184.523 51 189 46.5228 189 41V10C189 4.47715 193.477 0 199 0H947C952.523 0 957 4.47715 957 10V424Z" fill="#005870"/>
</g>
<defs>
<filter id="filter0_i_2161_1460" x="0" y="0" width="957" height="434" filterUnits="userSpaceOnUse" color-interpolation-filters="sRGB">
<feFlood flood-opacity="0" result="BackgroundImageFix"/>
<feBlend mode="normal" in="SourceGraphic" in2="BackgroundImageFix" result="shape"/>
<feColorMatrix in="SourceAlpha" type="matrix" values="0 0 0 0 0 0 0 0 0 0 0 0 0 0 0 0 0 0 127 0" result="hardAlpha"/>
<feOffset dx="-16" dy="16"/>
<feComposite in2="hardAlpha" operator="arithmetic" k2="-1" k3="1"/>
<feColorMatrix type="matrix" values="0 0 0 0 0 0 0 0 0 0.243137 0 0 0 0 0.345098 0 0 0 1 0"/>
<feBlend mode="normal" in2="shape" result="effect1_innerShadow_2161_1460"/>
</filter>
</defs>
</svg>
