<svg width="54" height="44" viewBox="0 0 54 44" fill="none" xmlns="http://www.w3.org/2000/svg">
<g filter="url(#filter0_di_2000_1339)">
<path d="M41.4261 8.65184C38.7744 7.41569 35.9033 6.51848 32.9126 6.00009C32.8864 5.99925 32.8603 6.00417 32.8362 6.01451C32.8121 6.02484 32.7905 6.04034 32.7731 6.05991C32.4142 6.71786 31.9955 7.57519 31.7163 8.23315C28.5442 7.75463 25.3182 7.75463 22.1461 8.23315C21.867 7.55525 21.4483 6.71786 21.0695 6.05991C21.0495 6.02003 20.9897 6.00009 20.9299 6.00009C17.9392 6.51848 15.0881 7.41569 12.4164 8.65184C12.3964 8.65184 12.3765 8.67178 12.3566 8.69172C6.93343 16.8065 5.43808 24.7019 6.17578 32.5176C6.17578 32.5575 6.19572 32.5974 6.2356 32.6173C9.82443 35.2491 13.2737 36.8442 16.6831 37.9009C16.7429 37.9208 16.8027 37.9009 16.8227 37.861C17.6202 36.7644 18.338 35.608 18.956 34.3918C18.9959 34.312 18.956 34.2323 18.8763 34.2123C17.7398 33.7737 16.6632 33.2553 15.6064 32.6572C15.5267 32.6173 15.5267 32.4977 15.5865 32.4379C15.8058 32.2784 16.0251 32.0989 16.2445 31.9394C16.2843 31.8995 16.3442 31.8995 16.384 31.9195C23.2427 35.0497 30.6397 35.0497 37.4186 31.9195C37.4585 31.8995 37.5183 31.8995 37.5582 31.9394C37.7775 32.1189 37.9968 32.2784 38.2161 32.4578C38.2959 32.5176 38.2959 32.6372 38.1962 32.6771C37.1594 33.2952 36.0628 33.7936 34.9264 34.2323C34.8466 34.2522 34.8267 34.3519 34.8466 34.4117C35.4846 35.6279 36.2024 36.7843 36.98 37.8809C37.0398 37.9009 37.0996 37.9208 37.1594 37.9009C40.5887 36.8442 44.038 35.2491 47.6269 32.6173C47.6667 32.5974 47.6867 32.5575 47.6867 32.5176C48.5639 23.4857 46.2312 15.6501 41.5059 8.69172C41.486 8.67178 41.466 8.65184 41.4261 8.65184ZM19.9928 27.7524C17.9392 27.7524 16.2245 25.8583 16.2245 23.5256C16.2245 21.1928 17.8993 19.2987 19.9928 19.2987C22.1062 19.2987 23.781 21.2128 23.7611 23.5256C23.7611 25.8583 22.0863 27.7524 19.9928 27.7524ZM33.8896 27.7524C31.836 27.7524 30.1213 25.8583 30.1213 23.5256C30.1213 21.1928 31.7961 19.2987 33.8896 19.2987C36.003 19.2987 37.6778 21.2128 37.6579 23.5256C37.6579 25.8583 36.003 27.7524 33.8896 27.7524Z" fill="white"/>
</g>
<defs>
<filter id="filter0_di_2000_1339" x="0.370451" y="0.370451" width="53.1263" height="43.1683" filterUnits="userSpaceOnUse" color-interpolation-filters="sRGB">
<feFlood flood-opacity="0" result="BackgroundImageFix"/>
<feColorMatrix in="SourceAlpha" type="matrix" values="0 0 0 0 0 0 0 0 0 0 0 0 0 0 0 0 0 0 127 0" result="hardAlpha"/>
<feOffset/>
<feGaussianBlur stdDeviation="2.81477"/>
<feComposite in2="hardAlpha" operator="out"/>
<feColorMatrix type="matrix" values="0 0 0 0 0.839216 0 0 0 0 0.980392 0 0 0 0 0.937255 0 0 0 0.32549 0"/>
<feBlend mode="normal" in2="BackgroundImageFix" result="effect1_dropShadow_2000_1339"/>
<feBlend mode="normal" in="SourceGraphic" in2="effect1_dropShadow_2000_1339" result="shape"/>
<feColorMatrix in="SourceAlpha" type="matrix" values="0 0 0 0 0 0 0 0 0 0 0 0 0 0 0 0 0 0 127 0" result="hardAlpha"/>
<feOffset/>
<feGaussianBlur stdDeviation="5.69992"/>
<feComposite in2="hardAlpha" operator="arithmetic" k2="-1" k3="1"/>
<feColorMatrix type="matrix" values="0 0 0 0 0.937255 0 0 0 0 0.32549 0 0 0 0 0.752941 0 0 0 1 0"/>
<feBlend mode="normal" in2="shape" result="effect2_innerShadow_2000_1339"/>
</filter>
</defs>
</svg>
